# xmcd CD database file
#
# Track frame offsets:
#	150
#	13113
#	28872
#	49021
#	62370
#	80017
#	111713
#	130252
#	142804
#	169695
#	183106
#	209235
#	231845
#	254107
#	268581
#	290097
#	307830
#
# Disc length: 4488 seconds
#
# Revision: 1
# Processed by: cddbd v1.5.1PL0 Copyright (c) Steve Scherf et al.
# Submitted via: CDex 1.50beta10
#
DISCID=00118611
DTITLE=Various Artist - 50 Jahre Jazzszene Hamburg Vol.2
DYEAR=1999
DGENRE=Jazz
TTITLE0=Hot Shopt_You Made Me Love You
TTITLE1=Swing On A String_Swing A Lulu
TTITLE2=Black Jass_Cushion Foot Stomp
TTITLE3=Skiffle Jam_Jambalaya
TTITLE4=Les Enfants Du Jazz_Mr.Sandman
TTITLE5=Schnelsen Stompers_Black And Blue
TTITLE6=Riverside Jazz Connexion_Won't You Come Home Bill Bailey
TTITLE7=Delta Trio_Waltzing Matilda
TTITLE8=Kirsten Blötz New Orleans Jazzband_Sentimental Journey
TTITLE9=Forum Stompers_Harlem Bound
TTITLE10=Hamburg New Orleans Allstars_Tell Me You Dreams
TTITLE11=Jazz For Fun_Do You Know What It Means To Miss New Orleans
TTITLE12=Wood Cradle Babies_Everbody Loves My Baby
TTITLE13=Ellen Obier and Band_The Lady Is A Tramp
TTITLE14=Savoy Jazz Band_Algiers Strut
TTITLE15=Mahogany Jazz Band_Orienal Strut
TTITLE16=New Orleans Quarter_Old Rugged Cross
EXTD=YEAR: 1999
EXTT0=
EXTT1=
EXTT2=
EXTT3=
EXTT4=
EXTT5=
EXTT6=
EXTT7=
EXTT8=
EXTT9=
EXTT10=
EXTT11=
EXTT12=
EXTT13=
EXTT14=
EXTT15=
EXTT16=
PLAYORDER=
